<svg width="16" height="14" viewBox="0 0 16 14" fill="none" xmlns="http://www.w3.org/2000/svg">
<path d="M12 11.7793C12 12.8843 10.88 13.7793 9.5 13.7793C8.12 13.7793 7 12.8843 7 11.7793C7 10.6743 8.12 9.7793 9.5 9.7793C10.88 9.7793 12 10.6743 12 11.7793Z" fill="#555555"/>
<path fill-rule="evenodd" clip-rule="evenodd" d="M12 1.7793V11.7793H11V1.7793H12Z" fill="#555555"/>
<path d="M11 1.5994C11.0001 1.3683 11.0803 1.14439 11.2269 0.965732C11.3735 0.787071 11.5774 0.66469 11.804 0.619396L14.804 0.0193962C14.949 -0.00959053 15.0987 -0.00604981 15.2422 0.0297633C15.3856 0.0655765 15.5194 0.13277 15.6338 0.226504C15.7482 0.320238 15.8404 0.438177 15.9037 0.571826C15.967 0.705475 15.9999 0.851505 16 0.999396V2.7794L11 3.7794V1.5994Z" fill="#555555"/>
<path fill-rule="evenodd" clip-rule="evenodd" d="M0 10.2793C0 10.1467 0.0526784 10.0195 0.146447 9.92574C0.240215 9.83197 0.367392 9.7793 0.5 9.7793H4C4.13261 9.7793 4.25979 9.83197 4.35355 9.92574C4.44732 10.0195 4.5 10.1467 4.5 10.2793C4.5 10.4119 4.44732 10.5391 4.35355 10.6329C4.25979 10.7266 4.13261 10.7793 4 10.7793H0.5C0.367392 10.7793 0.240215 10.7266 0.146447 10.6329C0.0526784 10.5391 0 10.4119 0 10.2793ZM0 6.2793C0 6.14669 0.0526784 6.01951 0.146447 5.92574C0.240215 5.83198 0.367392 5.7793 0.5 5.7793H8C8.13261 5.7793 8.25979 5.83198 8.35355 5.92574C8.44732 6.01951 8.5 6.14669 8.5 6.2793C8.5 6.41191 8.44732 6.53908 8.35355 6.63285C8.25979 6.72662 8.13261 6.7793 8 6.7793H0.5C0.367392 6.7793 0.240215 6.72662 0.146447 6.63285C0.0526784 6.53908 0 6.41191 0 6.2793ZM0 2.2793C0 2.14669 0.0526784 2.01951 0.146447 1.92574C0.240215 1.83198 0.367392 1.7793 0.5 1.7793H8C8.13261 1.7793 8.25979 1.83198 8.35355 1.92574C8.44732 2.01951 8.5 2.14669 8.5 2.2793C8.5 2.41191 8.44732 2.53908 8.35355 2.63285C8.25979 2.72662 8.13261 2.7793 8 2.7793H0.5C0.367392 2.7793 0.240215 2.72662 0.146447 2.63285C0.0526784 2.53908 0 2.41191 0 2.2793Z" fill="#555555"/>
</svg>
